<?xml version="1.0" standalone="no"?>
<!DOCTYPE svg PUBLIC "-//W3C//DTD SVG 20010904//EN"
 "http://www.w3.org/TR/2001/REC-SVG-20010904/DTD/svg10.dtd">
<svg version="1.0" xmlns="http://www.w3.org/2000/svg"
 width="513.000000pt" height="513.000000pt" viewBox="0 0 513.000000 513.000000"
 preserveAspectRatio="xMidYMid meet">
<metadata>
Created by potrace 1.14, written by Peter Selinger 2001-2017
</metadata>
<g transform="translate(0.000000,513.000000) scale(0.100000,-0.100000)"
fill="#000000" stroke="none">
<path d="M900 2610 l0 -1180 155 0 155 0 0 465 0 465 358 0 c386 1 446 6 593
55 95 32 209 105 272 175 156 173 208 485 122 733 -65 188 -207 329 -408 405
-149 56 -224 62 -764 62 l-483 0 0 -1180z m1043 905 c216 -56 338 -219 338
-450 0 -248 -132 -405 -373 -445 -35 -5 -206 -10 -380 -10 l-318 0 0 460 0
460 338 0 c267 0 350 -3 395 -15z"/>
<path d="M3530 3213 c-145 -12 -325 -80 -428 -162 -97 -77 -171 -201 -185
-308 l-5 -43 148 0 148 0 7 33 c35 161 236 267 449 236 127 -18 211 -73 264
-174 24 -45 27 -63 30 -177 l4 -126 -259 -4 c-237 -4 -266 -7 -354 -30 -311
-84 -469 -265 -469 -539 0 -252 169 -450 430 -505 105 -22 282 -15 370 15 79
27 179 85 242 140 l46 41 7 -42 c3 -24 13 -64 21 -90 l16 -48 154 0 c171 0
169 -1 143 67 -39 100 -42 147 -48 718 -6 551 -7 561 -29 625 -64 180 -207
304 -403 349 -87 20 -221 31 -299 24z m430 -1117 l0 -184 -38 -50 c-95 -127
-246 -201 -407 -202 -196 0 -322 104 -333 276 -12 182 103 293 346 334 26 4
134 8 240 9 l192 1 0 -184z"/>
</g>
</svg>
